<svg width="48" height="48" viewBox="0 0 48 48" fill="none" xmlns="http://www.w3.org/2000/svg">
<rect width="48" height="48" rx="24" fill="white"/>
<path d="M39.6727 20.0905C40.7684 17.3401 39.0236 14.0831 35.7754 12.8157C32.5272 11.5484 29.0058 12.7506 27.91 15.5009C26.8142 18.2513 28.5591 21.5083 31.8073 22.7757C35.0554 24.043 38.5769 22.8408 39.6727 20.0905Z" fill="#A3DB84"/>
<path d="M28.3945 21.2348C33.5408 24.3869 35.3282 30.7553 32.3859 35.4573C29.4459 40.1586 22.8887 41.415 17.743 38.2626C12.5963 35.1099 10.809 28.7418 13.7501 24.0401C16.6905 19.3385 23.2477 18.0817 28.3945 21.2348Z" fill="#F56E7B"/>
<path d="M19.6411 18.3706C19.5652 18.368 19.4894 18.3666 19.4142 18.3666C17.8839 18.3652 16.4077 18.8869 15.3149 19.9733C14.1861 21.0904 13.6013 22.5699 13.6031 24.1174C13.6031 25.0523 13.8129 26.0126 14.2341 26.9432C14.3575 27.2148 14.6795 27.3366 14.9537 27.2148C15.2285 27.093 15.3516 26.774 15.2285 26.5027C14.8662 25.7022 14.6919 24.8924 14.6919 24.1174C14.6933 22.834 15.1642 21.6502 16.086 20.7343C16.9548 19.8735 18.1261 19.4463 19.4138 19.4445C19.4766 19.4445 19.5402 19.4456 19.6037 19.4477C19.9043 19.4578 20.1559 19.2249 20.1665 18.9275C20.177 18.63 19.941 18.3806 19.6411 18.3706ZM22.9148 19.2411C22.5884 19.0744 22.2555 18.931 21.9189 18.8118C21.6361 18.7112 21.3243 18.8567 21.2226 19.1366C21.1213 19.4168 21.268 19.7254 21.5508 19.826C21.8416 19.9295 22.131 20.0538 22.4152 20.199C22.6825 20.3355 23.0114 20.2317 23.149 19.9669C23.2866 19.7024 23.1817 19.3773 22.9148 19.2411Z" fill="#332F2D"/>
<path d="M37.6503 14.875L37.7327 14.7999C38.689 13.8543 39.1998 12.692 39.2006 11.5516C39.2035 10.621 38.8466 9.70665 38.1604 9.02975L38.1593 9.02903C37.4757 8.34925 36.551 7.99679 35.6114 8.00002C34.459 8.00038 33.2841 8.5059 32.3289 9.45335L32.3304 9.45263L32.2552 9.53239C32.0944 9.3876 31.9256 9.25179 31.7419 9.13753C31.1889 8.79226 30.5383 8.5986 29.8598 8.59932C29.3217 8.59932 28.8011 8.71932 28.3331 8.94208C27.6295 9.27586 27.0497 9.83348 26.6532 10.5309C26.2557 11.2286 26.0386 12.0657 26.0386 12.9787C26.0393 13.9204 26.3221 14.7816 26.7465 15.493C26.9923 15.9022 27.2857 16.2579 27.6092 16.5648C27.3932 16.8148 27.1651 17.0265 26.9597 17.1856C26.7825 17.3229 26.6253 17.4242 26.5178 17.4889L26.508 17.4946C24.1688 15.7776 21.4891 14.8934 18.9669 14.8934C16.537 14.8934 14.2529 15.7122 12.5596 17.3922C9.39195 20.5324 8.97843 25.4173 11.615 29.7568C11.9722 30.3069 11.9708 31.0528 11.8441 31.2644C10.7215 33.1341 8.56272 35.3973 8.56272 35.3973C7.80175 36.2007 7.81228 37.4582 8.59612 38.2472C9.00021 38.641 9.52664 38.8378 10.0527 38.8378C10.5646 38.8378 11.0758 38.6521 11.4766 38.2809C11.4766 38.2809 13.7628 36.1442 15.6525 35.0333C15.7328 34.9863 15.8885 34.9561 16.0824 34.9561C16.4044 34.9561 16.8292 35.0387 17.1767 35.2593C19.1132 36.4123 21.1576 36.976 23.1101 36.976C25.5782 36.976 27.8989 36.0753 29.6703 34.3259C33.1284 30.9119 32.9712 25.0735 29.5711 20.5284L29.5838 20.5087C29.7392 20.2708 30.0667 19.844 30.5318 19.457C30.8418 19.7725 31.2013 20.0603 31.6126 20.2989C32.3275 20.7113 33.189 20.9851 34.1301 20.9858C35.3598 20.9862 36.4558 20.6032 37.2582 19.927C37.6586 19.59 37.9847 19.179 38.2094 18.7155C38.4341 18.2527 38.5558 17.7368 38.5554 17.2057V17.2043C38.5561 16.5457 38.3681 15.913 38.0315 15.3726C37.9211 15.1948 37.7897 15.0313 37.6503 14.875ZM29.2233 32.0365L29.0331 31.7458C28.951 31.6208 28.7826 31.5856 28.657 31.6664C28.5303 31.7473 28.4947 31.914 28.576 32.039L28.881 32.5043C28.7278 32.6947 28.5647 32.879 28.3876 33.0536C28.2282 33.211 28.0615 33.3583 27.8913 33.4984L27.1858 31.8996C27.1256 31.7631 26.9651 31.7009 26.8271 31.7602C26.6895 31.8198 26.6264 31.9786 26.6866 32.1152L27.4447 33.834C27.1023 34.0765 26.7411 34.2856 26.3646 34.4631L25.9442 33.2513C25.8952 33.11 25.7405 33.0353 25.5982 33.0835C25.4562 33.132 25.3804 33.2854 25.4294 33.4259L25.8639 34.6798C25.4428 34.8404 25.006 34.9658 24.5529 35.0481L24.1587 33.0418C24.1296 32.8959 23.9869 32.8003 23.8388 32.8291C23.6914 32.8571 23.5948 32.999 23.6239 33.1449L24.0131 35.1235C23.7168 35.1562 23.4166 35.1781 23.1101 35.1781C22.9446 35.1781 22.7787 35.1695 22.612 35.1594L22.6062 33.5272C22.6055 33.3784 22.4828 33.2581 22.3325 33.2584C22.1829 33.2592 22.0609 33.3802 22.0616 33.529L22.0674 35.1084C21.6107 35.0524 21.1533 34.9622 20.6976 34.8346L20.9928 33.3871C21.0226 33.2412 20.9274 33.0986 20.78 33.0691C20.6326 33.04 20.4892 33.1345 20.4594 33.2804L20.1759 34.6712C19.7384 34.5224 19.3046 34.3428 18.8769 34.1308L19.0377 33.5897C19.0802 33.4474 18.9981 33.2976 18.8533 33.2552C18.7095 33.2132 18.5581 33.2947 18.5153 33.4374L18.3867 33.8703C18.3011 33.8225 18.2147 33.7787 18.1301 33.7284C17.3331 33.2329 16.5068 33.1578 16.0828 33.1578C15.5512 33.1578 15.0927 33.2699 14.7264 33.4869C12.6871 34.6855 10.3301 36.8801 10.2364 36.9677C10.1725 37.027 10.1017 37.0392 10.0534 37.0392C10.0077 37.0392 9.94126 37.0277 9.88099 36.9746C9.79168 36.8747 9.79386 36.7231 9.8839 36.6282C9.97756 36.5301 12.194 34.1973 13.4052 32.1791C13.932 31.301 13.8264 29.8585 13.1609 28.8112C10.9829 25.2136 11.2508 21.2309 13.8452 18.6587C15.1446 17.3692 16.916 16.6876 18.9673 16.6876C21.7498 16.6876 24.6252 17.9509 26.8573 20.153L26.8976 20.1947L26.9132 20.2083C30.4846 23.7829 31.3795 28.7946 29.2233 32.0365ZM35.7123 18.8125C35.3024 19.0413 34.7691 19.1894 34.1297 19.1894C33.5495 19.1897 32.9966 19.0184 32.5279 18.7475C32.0595 18.4791 31.6841 18.1068 31.4776 17.772C31.2216 17.3613 30.6814 17.2248 30.2573 17.4626C29.4463 17.9193 28.8643 18.5021 28.4762 18.9713C28.4359 19.0205 28.3988 19.0672 28.3625 19.1132C28.2946 19.0435 28.2293 18.972 28.1588 18.903L28.1436 18.8879C28.0782 18.8236 28.0111 18.7636 27.945 18.7007C27.9889 18.6684 28.0332 18.6357 28.0797 18.6001C28.5684 18.2204 29.174 17.6441 29.6347 16.8249C29.8728 16.4009 29.7294 15.8685 29.3094 15.6188C28.9688 15.4186 28.5865 15.0475 28.3102 14.5808C28.0307 14.1133 27.8542 13.5597 27.855 12.9794C27.855 12.1358 28.12 11.4797 28.491 11.0486C28.6777 10.8319 28.8897 10.671 29.1188 10.5625C29.3479 10.4536 29.5933 10.3968 29.8605 10.3961C30.196 10.3968 30.4988 10.487 30.7761 10.6584C31.0524 10.8305 31.3011 11.0881 31.4943 11.4327C31.6547 11.7215 31.9593 11.8983 32.2926 11.8969C32.6252 11.8954 32.928 11.7158 33.087 11.4258C33.2268 11.1715 33.4003 10.934 33.6131 10.7242L33.6142 10.7227C34.2768 10.067 35.0029 9.79575 35.6121 9.79647C36.1135 9.79934 36.5368 9.96713 36.8763 10.2995L36.8759 10.2991C37.2124 10.6361 37.382 11.0558 37.3853 11.5512C37.3853 12.1541 37.1115 12.8727 36.4493 13.5295C36.2409 13.7354 36.0053 13.9046 35.7522 14.0397C35.4614 14.1949 35.2806 14.4913 35.2759 14.8179C35.2712 15.1445 35.4443 15.4459 35.7308 15.6087C36.0663 15.7995 36.3171 16.0438 36.4845 16.3125C36.6512 16.5827 36.739 16.8773 36.7401 17.2047C36.7397 17.4687 36.6817 17.7113 36.5724 17.9376C36.4079 18.2768 36.1222 18.5829 35.7123 18.8125Z" fill="#332F2D"/>
</svg>
